<svg width="40" height="40" viewBox="0 0 40 40" fill="none" xmlns="http://www.w3.org/2000/svg">
<path d="M19.9998 16.8347C20.265 15.0882 20.4347 11.1613 17.4181 8.14477C14.4016 5.12823 10.4747 5.29791 8.72819 5.5631C8.15888 5.64954 7.72605 6.08237 7.63961 6.65168C7.37442 8.3982 7.20474 12.3251 10.2213 15.3416C13.2378 18.3582 17.1647 18.1885 18.9112 17.9233C19.4805 17.8368 19.9134 17.404 19.9998 16.8347ZM19.9998 16.8347L20 35.0001M30.0483 27.1703C33.8379 24.9824 34.701 21.0399 34.8967 19.2556C34.9595 18.6832 34.6541 18.1543 34.127 17.9224C32.4839 17.1998 28.638 15.9761 24.8485 18.164C21.0589 20.3519 20.1958 24.2944 20 26.0787C19.9372 26.6511 20.2426 27.18 20.7697 27.4119C22.4128 28.1345 26.2587 29.3582 30.0483 27.1703Z" stroke="#3DCD58" stroke-width="2" stroke-linecap="round" stroke-linejoin="round"/>
</svg>
