<svg width="40" height="40" viewBox="0 0 40 40" fill="none" xmlns="http://www.w3.org/2000/svg">
<path d="M4.1665 31.6667C4.1665 27.148 8.27056 24.1667 13.3332 24.1667C18.3958 24.1667 22.4998 27.148 22.4998 31.6667M35.8332 27.5001C35.8332 22.9814 31.7291 20.0001 26.6665 20.0001C24.8204 20.0001 23.1034 20.3761 21.6665 21.0764M17.4998 15.0001C17.4998 17.3013 15.6344 19.1667 13.3332 19.1667C11.032 19.1667 9.1665 17.3013 9.1665 15.0001C9.1665 12.6989 11.032 10.8334 13.3332 10.8334C15.6344 10.8334 17.4998 12.6989 17.4998 15.0001ZM30.8332 10.8334C30.8332 13.1346 28.9677 15.0001 26.6665 15.0001C24.3653 15.0001 22.4998 13.1346 22.4998 10.8334C22.4998 8.53223 24.3653 6.66675 26.6665 6.66675C28.9677 6.66675 30.8332 8.53223 30.8332 10.8334Z" stroke="#3DCD58" stroke-width="2" stroke-linecap="round" stroke-linejoin="round"/>
</svg>
