<svg width="40" height="40" viewBox="0 0 40 40" fill="none" xmlns="http://www.w3.org/2000/svg">
<g clip-path="url(#clip0_719_322)">
<path d="M30 11.6667V3.61111C30 3.35318 30 3.22421 29.9929 3.11532C29.8834 1.44613 28.5539 0.116541 26.8847 0.00713692C26.7758 0 26.6468 0 26.3889 0H13.6111C13.3532 0 13.2242 0 13.1153 0.00713692C11.4461 0.116541 10.1165 1.44613 10.0071 3.11532C10 3.22421 10 3.35318 10 3.61111V11.6667M30 11.6667C30 17.1895 25.5228 21.6667 20 21.6667M30 11.6667C32.7614 11.6667 35 9.42809 35 6.66666V4.72222C35 3.95516 34.3782 3.33333 33.6111 3.33333H30M10 11.6667C10 17.1895 14.4771 21.6667 20 21.6667M10 11.6667C7.23858 11.6667 5 9.42809 5 6.66666L5 4.72222C5 3.95516 5.62183 3.33333 6.38889 3.33333H10M20 21.6667V25M20 25H17.5C15.1988 25 13.3333 26.8655 13.3333 29.1667C13.3333 29.6269 13.7064 30 14.1667 30H25.8333C26.2936 30 26.6667 29.6269 26.6667 29.1667C26.6667 26.8655 24.8012 25 22.5 25H20Z" stroke="#3DCD58" stroke-width="2" stroke-linecap="round" stroke-linejoin="round"/>
</g>
<defs>
<clipPath id="clip0_719_322">
<rect width="40" height="40" fill="white"/>
</clipPath>
</defs>
</svg>
