<svg width="40" height="40" viewBox="0 0 40 40" fill="none" xmlns="http://www.w3.org/2000/svg">
<path d="M10.311 27.5817C10.544 26.9446 10.2733 26.2542 9.72167 25.8592C9.46617 25.6763 9.21402 25.4901 8.96946 25.2933C7.57843 24.1838 6.42293 22.8567 5.715 21.17C4.56538 18.4357 4.82435 15.7964 6.33142 13.2867C7.89472 10.6837 10.215 9.05519 12.9327 8.01861C17.4376 6.29908 21.995 6.214 26.5503 7.79744C29.2152 8.72345 31.5379 10.2097 33.2593 12.5806C35.7273 15.9834 35.5551 20.3338 32.8433 23.5589C30.646 26.1716 27.8041 27.5911 24.6178 28.3725C22.8879 28.7974 18.4122 28.0711 17.2607 29.0458C14.8349 31.1627 12.0517 32.5018 8.96016 33.1775C8.67891 33.2382 8.39063 33.2771 8.10584 33.3196C7.7449 33.3743 7.44958 33.271 7.26441 32.9211C7.08042 32.5711 7.14722 32.2527 7.37691 31.9635C7.64411 31.6281 7.91599 31.2951 8.20778 30.9864C9.13201 30.0128 9.84662 28.8518 10.311 27.5817Z" stroke="#3DCD58" stroke-width="2" stroke-linecap="round" stroke-linejoin="round"/>
</svg>
