<svg width="202" height="34" viewBox="0 0 202 34" fill="none" xmlns="http://www.w3.org/2000/svg">
<path d="M4.52787 0.545454H5.22389L11.5875 24.8068H11.687L26.1046 0.545454H26.8006L22.5747 26H21.7793L25.6074 3.03125H25.508L11.8361 26H11.0406L5.02502 3.03125H4.92559L1.09747 26H0.302013L4.52787 0.545454ZM29.5971 33.1591C29.274 33.1591 28.9384 33.1135 28.5904 33.0224C28.2506 32.9395 27.9068 32.8194 27.5588 32.6619L27.9565 31.9659C28.6857 32.3222 29.3941 32.4424 30.0818 32.3263C30.7779 32.2186 31.4325 31.8913 32.0456 31.3445C32.6588 30.8059 33.2098 30.0684 33.6987 29.1321L35.1902 26.2983L31.5112 6.90909H32.3066L35.7619 25.0057H35.8613L45.3322 6.90909H46.2271L34.4196 29.4801C33.997 30.2839 33.5247 30.9592 33.0027 31.506C32.4889 32.0529 31.942 32.4631 31.362 32.7365C30.782 33.0182 30.1937 33.1591 29.5971 33.1591ZM47.9034 25.1968L48.9288 21.9155C49.4187 22.3029 50.1479 22.6333 51.1163 22.9067C52.0962 23.1802 53.0361 23.3169 53.9362 23.3169C55.292 23.3169 56.38 22.9865 57.2003 22.3257C58.0206 21.6649 58.4308 20.7534 58.4308 19.5913C58.4308 18.6229 58.1175 17.7684 57.4908 17.0278C56.8756 16.2873 55.816 15.3758 54.3121 14.2935C52.8196 13.2111 51.7316 12.2028 51.048 11.2686C50.3644 10.3343 50.0226 9.1665 50.0226 7.76514C50.0226 5.50928 50.7347 3.74333 52.1588 2.46729C53.5944 1.17985 55.4458 0.536133 57.713 0.536133C60.2765 0.536133 61.9798 0.758301 62.8229 1.20264L61.8488 4.51807C61.5297 4.25602 60.9943 4.01107 60.2423 3.7832C59.4904 3.55534 58.7897 3.44141 58.1403 3.44141C56.6819 3.44141 55.5312 3.77181 54.6881 4.43262C53.845 5.09342 53.4235 6.04476 53.4235 7.28662C53.4235 7.81071 53.5545 8.31771 53.8165 8.80762C54.09 9.29753 54.4545 9.74186 54.9103 10.1406C55.366 10.528 56.3003 11.2515 57.713 12.311C59.1372 13.3706 60.1796 14.453 60.8405 15.5581C61.5127 16.6519 61.8488 17.9279 61.8488 19.3862C61.8488 21.6535 61.0854 23.3966 59.5587 24.6157C58.0434 25.8234 56.0382 26.4272 53.5431 26.4272C52.6544 26.4272 51.6518 26.3019 50.5353 26.0513C49.4187 25.8006 48.5415 25.5158 47.9034 25.1968ZM79.1266 8.27783L78.5284 11.0635C77.7081 10.4141 76.6087 10.0894 75.2301 10.0894C73.1337 10.0894 71.4362 10.9211 70.1373 12.5845C68.8499 14.2365 68.2062 16.2702 68.2062 18.6855C68.2062 20.1667 68.622 21.3516 69.4537 22.2402C70.2968 23.1175 71.2539 23.5562 72.3248 23.5562C73.9768 23.5562 75.5605 23.0492 77.0758 22.0352L76.7169 25.3506C75.2244 26.0114 73.5895 26.3418 71.8121 26.3418C69.5563 26.3418 67.8245 25.6981 66.6168 24.4106C65.4091 23.1118 64.8053 21.3914 64.8053 19.2495C64.8053 15.7632 65.7623 12.9092 67.6764 10.6875C69.5905 8.46582 72.0286 7.35498 74.9908 7.35498C76.7454 7.35498 78.124 7.6626 79.1266 8.27783ZM91.944 26L93.9777 14.4985C94.0574 14.0428 94.0973 13.627 94.0973 13.251C94.0973 11.1432 93.0719 10.0894 91.0211 10.0894C90.235 10.0894 89.4033 10.3229 88.526 10.79C87.6601 11.2458 86.9594 11.7812 86.424 12.3965L84.0143 26H80.6989L85.1593 0.194336H88.3893L86.8854 9.71338C87.4436 9.04118 88.2412 8.48291 89.278 8.03857C90.3261 7.58285 91.3629 7.35498 92.3883 7.35498C94.0061 7.35498 95.2594 7.81641 96.1481 8.73926C97.0481 9.66211 97.4982 10.9609 97.4982 12.6357C97.4982 13.2168 97.4412 13.8377 97.3273 14.4985L95.2936 26H91.944ZM111.324 26L113.238 15.353C113.409 14.4074 113.494 13.6213 113.494 12.9946C113.494 11.0578 112.486 10.0894 110.469 10.0894C109.695 10.0894 108.863 10.3172 107.974 10.7729C107.097 11.2287 106.396 11.7699 105.872 12.3965L103.497 26H100.215L102.676 12.123C102.733 11.804 102.762 11.4281 102.762 10.9951C102.762 9.83301 102.642 8.82471 102.403 7.97021L105.547 7.35498C105.855 9.01839 106.003 9.92415 105.992 10.0723C107.382 8.26074 109.387 7.35498 112.007 7.35498C115.311 7.35498 116.964 9.04118 116.964 12.4136C116.964 13.0858 116.889 13.8377 116.741 14.6694L114.776 26H111.324ZM123.338 17.3525C123.235 17.8994 123.184 18.4235 123.184 18.9248C123.184 20.4287 123.606 21.5851 124.449 22.394C125.292 23.203 126.471 23.6074 127.986 23.6074C129.331 23.6074 130.687 23.1118 132.054 22.1206L131.712 25.436C129.889 26.0399 128.277 26.3418 126.876 26.3418C122.159 26.3418 119.8 23.6986 119.8 18.4121C119.8 15.3018 120.792 12.6813 122.774 10.5508C124.756 8.42025 127.252 7.35498 130.259 7.35498C132.071 7.35498 133.518 7.74235 134.6 8.51709C135.683 9.29183 136.224 10.397 136.224 11.8325C136.224 13.8263 135.381 15.3986 133.694 16.5493C132.008 17.7 129.94 18.2754 127.491 18.2754C125.85 18.2754 124.466 17.9678 123.338 17.3525ZM123.902 14.9941C124.768 15.3815 125.788 15.5752 126.961 15.5752C128.738 15.5752 130.191 15.2904 131.319 14.7207C132.447 14.1396 133.011 13.2965 133.011 12.1914C133.011 10.79 132.042 10.0894 130.106 10.0894C127.155 10.0894 125.087 11.7243 123.902 14.9941ZM144.427 0.519043C145.054 0.519043 145.589 0.741211 146.033 1.18555C146.478 1.61849 146.7 2.15397 146.7 2.79199C146.7 3.41862 146.478 3.9541 146.033 4.39844C145.589 4.83138 145.054 5.04785 144.427 5.04785C143.8 5.04785 143.265 4.83138 142.82 4.39844C142.376 3.9541 142.154 3.41862 142.154 2.79199C142.154 2.15397 142.376 1.61849 142.82 1.18555C143.265 0.741211 143.8 0.519043 144.427 0.519043ZM139.18 26L141.949 10.4312H139.522L140.12 7.74805H145.709L142.479 26H139.18ZM160.303 26L160.696 23.8979C159.375 25.5158 157.569 26.3247 155.279 26.3247C153.297 26.3247 151.747 25.7209 150.63 24.5132C149.514 23.2941 148.956 21.6421 148.956 19.5571C148.956 15.991 149.913 13.0744 151.827 10.8071C153.741 8.52848 156.19 7.38916 159.175 7.38916C160.907 7.38916 162.234 8.10693 163.157 9.54248L164.883 0.194336H167.977L163.516 26H160.303ZM162.559 12.7725C162.582 12.6699 162.428 12.3566 162.098 11.8325C161.779 11.297 161.386 10.8812 160.919 10.585C160.463 10.2773 159.979 10.1235 159.466 10.1235C157.449 10.1235 155.775 10.9438 154.442 12.5845C153.12 14.2137 152.459 16.3044 152.459 18.8564C152.459 22.0807 153.786 23.6929 156.441 23.6929C157.637 23.6929 158.754 23.1061 159.791 21.9326C160.827 20.7477 161.5 19.221 161.807 17.3525L162.559 12.7725ZM172.386 17.3525C172.283 17.8994 172.232 18.4235 172.232 18.9248C172.232 20.4287 172.654 21.5851 173.497 22.394C174.34 23.203 175.519 23.6074 177.034 23.6074C178.379 23.6074 179.734 23.1118 181.102 22.1206L180.76 25.436C178.937 26.0399 177.325 26.3418 175.923 26.3418C171.207 26.3418 168.848 23.6986 168.848 18.4121C168.848 15.3018 169.839 12.6813 171.822 10.5508C173.804 8.42025 176.299 7.35498 179.307 7.35498C181.119 7.35498 182.566 7.74235 183.648 8.51709C184.73 9.29183 185.272 10.397 185.272 11.8325C185.272 13.8263 184.429 15.3986 182.742 16.5493C181.056 17.7 178.988 18.2754 176.539 18.2754C174.898 18.2754 173.514 17.9678 172.386 17.3525ZM172.95 14.9941C173.816 15.3815 174.835 15.5752 176.009 15.5752C177.786 15.5752 179.239 15.2904 180.367 14.7207C181.495 14.1396 182.059 13.2965 182.059 12.1914C182.059 10.79 181.09 10.0894 179.153 10.0894C176.203 10.0894 174.135 11.7243 172.95 14.9941ZM200.14 10.9097C199.456 10.3628 198.659 10.0894 197.747 10.0894C196.596 10.0894 195.497 10.6248 194.449 11.6958C193.401 12.7554 192.746 14.0257 192.484 15.5068L190.621 26H187.374L190.604 7.69678H193.851L193.338 10.6191C194.91 8.44303 196.864 7.35498 199.2 7.35498C199.599 7.35498 200.22 7.43473 201.063 7.59424L200.14 10.9097Z" fill="#8C8C8C"/>
</svg>
