<svg width="21" height="23" viewBox="0 0 21 23" fill="none" xmlns="http://www.w3.org/2000/svg">
<path d="M15.3371 10.4517C15.8884 16.0969 18.0526 17.8029 18.0526 17.8029H1C1 17.8029 3.84211 15.5626 3.84211 7.72118C3.84211 5.9386 4.44098 4.22905 5.50697 2.96859C6.57297 1.70812 8.01877 1 9.52632 1C9.84586 1 10.1627 1.03182 10.4737 1.09398" stroke="#434448" stroke-width="2" stroke-linecap="round" stroke-linejoin="round"/>
<path d="M16.1579 7.3011C17.7276 7.3011 19 5.89055 19 4.15055C19 2.41055 17.7276 1 16.1579 1C14.5882 1 13.3158 2.41055 13.3158 4.15055C13.3158 5.89055 14.5882 7.3011 16.1579 7.3011Z" stroke="#434448" stroke-width="2" stroke-linecap="round" stroke-linejoin="round"/>
<path d="M11.1652 20.9535C10.9987 21.2718 10.7597 21.536 10.4719 21.7196C10.1843 21.9033 9.85823 22 9.52628 22C9.19432 22 8.86823 21.9033 8.58061 21.7196C8.29299 21.536 8.05388 21.2718 7.88733 20.9535" stroke="#434448" stroke-width="2" stroke-linecap="round" stroke-linejoin="round"/>
<circle cx="16.5" cy="4.5" r="4.5" fill="#B3511A"/>
</svg>
